<svg width="32" height="32" viewBox="0 0 32 32" fill="none" xmlns="http://www.w3.org/2000/svg">
    <path d="M29.565 20.034H19.213a1.014 1.014 0 0 1-1.027-1c0-.552.46-1 1.027-1h10.352c.567 0 1.027.448 1.027 1s-.46 1-1.027 1z" fill="#3B2203"/>
    <path d="M16.723 22.458c-1.94 0-3.517-1.536-3.517-3.424s1.578-3.424 3.517-3.424c1.94 0 3.517 1.536 3.517 3.424s-1.578 3.424-3.517 3.424zm0-4.849c-.807 0-1.463.64-1.463 1.425s.657 1.424 1.463 1.424 1.463-.64 1.463-1.424c0-.786-.657-1.425-1.463-1.425z" fill="#3B2203"/>
    <path d="M14.233 20.034H1.62a1.014 1.014 0 0 1-1.027-1c0-.552.46-1 1.027-1h12.613c.568 0 1.027.448 1.027 1s-.46 1-1.027 1zM29.566 12.316H9.78a1.014 1.014 0 0 1-1.027-1c0-.552.46-1 1.027-1h19.785c.568 0 1.028.448 1.028 1s-.46 1-1.027 1z" fill="#3B2203"/>
    <path d="M7.29 14.74c-1.939 0-3.517-1.536-3.517-3.424s1.578-3.424 3.518-3.424c1.94 0 3.517 1.536 3.517 3.424S9.23 14.74 7.29 14.74zm0-4.848c-.806 0-1.462.639-1.462 1.424 0 .785.656 1.424 1.463 1.424.806 0 1.463-.639 1.463-1.424 0-.785-.657-1.424-1.463-1.424z" fill="#3B2203"/>
    <path d="M4.8 12.316H1.62a1.014 1.014 0 0 1-1.027-1c0-.552.46-1 1.027-1H4.8c.567 0 1.027.448 1.027 1s-.46 1-1.027 1zM19.92 4.6H1.62a1.014 1.014 0 0 1-1.027-1c0-.552.46-1 1.027-1h18.3c.566 0 1.026.448 1.026 1s-.46 1-1.027 1z" fill="#3B2203"/>
    <path d="M22.408 7.024c-1.939 0-3.516-1.536-3.516-3.424S20.469.176 22.408.176c1.94 0 3.518 1.536 3.518 3.424s-1.578 3.424-3.518 3.424zm0-4.848c-.806 0-1.462.639-1.462 1.424 0 .785.656 1.424 1.462 1.424.807 0 1.463-.639 1.463-1.424 0-.785-.656-1.424-1.463-1.424z" fill="#3B2203"/>
    <path d="M29.566 4.6h-4.667a1.014 1.014 0 0 1-1.027-1c0-.552.46-1 1.027-1h4.667c.567 0 1.027.448 1.027 1s-.46 1-1.027 1zM29.566 27.752H9.78a1.014 1.014 0 0 1-1.027-1c0-.552.46-1 1.027-1h19.785c.568 0 1.028.448 1.028 1s-.46 1-1.027 1z" fill="#3B2203"/>
    <path d="M7.29 30.176c-1.939 0-3.517-1.536-3.517-3.424 0-1.889 1.578-3.424 3.518-3.424 1.94 0 3.517 1.535 3.517 3.424 0 1.888-1.578 3.424-3.517 3.424zm0-4.849c-.806 0-1.462.64-1.462 1.424 0 .785.656 1.424 1.463 1.424.806 0 1.463-.639 1.463-1.424 0-.785-.657-1.424-1.463-1.424z" fill="#3B2203"/>
    <path d="M4.8 27.752H1.62a1.014 1.014 0 0 1-1.027-1c0-.552.46-1 1.027-1H4.8c.567 0 1.027.448 1.027 1s-.46 1-1.027 1z" fill="#3B2203"/>
</svg>
